<svg clip-rule="evenodd" fill-rule="evenodd" height="8.467mm" image-rendering="optimizeQuality" shape-rendering="geometricPrecision" text-rendering="geometricPrecision" viewBox="0 0 846.66 846.66" width="8.467mm" xmlns="http://www.w3.org/2000/svg"><g id="Layer_x0020_1"><path d="m162.57 9.16h521.54c73.58 0 133.7 60.13 133.7 133.71v560.92c0 73.58-60.13 133.71-133.7 133.71h-521.54c-73.59 0-133.71-60.13-133.71-133.71v-560.92c0-73.58 60.13-133.71 133.71-133.71zm78.15 70.8c26.72 0 26.72 40.6 0 40.6h-25.37c-26.73 0-26.73-40.6 0-40.6zm260.4 0c26.73 0 26.73 40.6 0 40.6h-25.36c-26.73 0-26.73-40.6 0-40.6zm-130.2 0c26.73 0 26.73 40.6 0 40.6h-25.36c-26.73 0-26.73-40.6 0-40.6zm260.4 0c26.73 0 26.73 40.6 0 40.6h-25.36c-26.73 0-26.73-40.6 0-40.6zm-58.16 403.84h121.71c11.21 0 20.3 9.09 20.3 20.3v224.63c0 11.21-9.09 20.3-20.3 20.3h-121.71c-11.21 0-20.3-9.09-20.3-20.3v-224.63c0-11.21 9.09-20.3 20.3-20.3zm101.41 40.6h-81.11v184.03h81.11zm-312.09 105.22h121.71c11.21 0 20.3 9.1 20.3 20.31v78.8c0 11.21-9.09 20.3-20.3 20.3h-121.71c-11.21 0-20.3-9.09-20.3-20.3v-78.8c0-11.21 9.09-20.31 20.3-20.31zm101.41 40.61h-81.11v38.2h81.11zm-312.09-40.61h121.71c11.21 0 20.3 9.1 20.3 20.31v78.8c0 11.21-9.09 20.3-20.3 20.3h-121.71c-11.21 0-20.3-9.09-20.3-20.3v-78.8c0-11.21 9.09-20.31 20.3-20.31zm101.41 40.61h-81.11v38.2h81.11zm109.27-186.43h121.71c11.21 0 20.3 9.09 20.3 20.3v78.81c0 11.21-9.09 20.3-20.3 20.3h-121.71c-11.21 0-20.3-9.09-20.3-20.3v-78.81c0-11.21 9.09-20.3 20.3-20.3zm101.41 40.61h-81.11v38.2h81.11zm-312.09-40.61h121.71c11.21 0 20.3 9.09 20.3 20.3v78.81c0 11.21-9.09 20.3-20.3 20.3h-121.71c-11.21 0-20.3-9.09-20.3-20.3v-78.81c0-11.21 9.09-20.3 20.3-20.3zm101.41 40.61h-81.11v38.2h81.11zm319.95-186.43h121.71c11.21 0 20.3 9.09 20.3 20.31v78.8c0 11.21-9.09 20.3-20.3 20.3h-121.71c-11.21 0-20.3-9.09-20.3-20.3v-78.8c0-11.22 9.09-20.31 20.3-20.31zm101.41 40.61h-81.11v38.2h81.11zm-312.09-40.61h121.71c11.21 0 20.3 9.09 20.3 20.31v78.8c0 11.21-9.09 20.3-20.3 20.3h-121.71c-11.21 0-20.3-9.09-20.3-20.3v-78.8c0-11.22 9.09-20.31 20.3-20.31zm101.41 40.61h-81.11v38.2h81.11zm-312.09-40.61h121.71c11.21 0 20.3 9.09 20.3 20.31v78.8c0 11.21-9.09 20.3-20.3 20.3h-121.71c-11.21 0-20.3-9.09-20.3-20.3v-78.8c0-11.22 9.09-20.31 20.3-20.31zm101.41 40.61h-81.11v38.2h81.11zm-101.4-221.53h543.06c11.21 0 20.3 9.09 20.3 20.3v113.91c0 11.21-9.09 20.3-20.3 20.3h-543.06c-11.22 0-20.31-9.09-20.31-20.3v-113.91c0-11.21 9.09-20.3 20.31-20.3zm522.76 40.6h-502.46v73.31h502.46zm9.54-147.89h-521.54c-51.17 0-93.1 41.93-93.1 93.1v560.92c0 51.16 41.93 93.1 93.1 93.1h521.54c51.16 0 93.1-41.93 93.1-93.1v-560.92c0-51.16-41.94-93.1-93.1-93.1z" fill-rule="nonzero"/></g></svg>